<?xml version="1.0" encoding="UTF-8"?>
<svg width="54px" height="54px" viewBox="0 0 54 54" version="1.1" xmlns="http://www.w3.org/2000/svg" xmlns:xlink="http://www.w3.org/1999/xlink">
    <title>Medium</title>
    <g id="Page-1" stroke="none" stroke-width="1" fill="none" fill-rule="evenodd">
        <g id="Artboard" transform="translate(-910.000000, -683.000000)" fill="#FAFAFA">
            <g id="Medium" transform="translate(907.000000, 680.000000)">
                <path d="M50,3.33333333 C53.68,3.33333333 56.6666667,6.32 56.6666667,10 L56.6666667,50 C56.6666667,53.68 53.68,56.6666667 50,56.6666667 L10,56.6666667 C6.32,56.6666667 3.33333333,53.68 3.33333333,50 L3.33333333,10 C3.33333333,6.32 6.32,3.33333333 10,3.33333333 L50,3.33333333 Z M19.2465428,16 C11.5625998,16 5.33333333,22.2698972 5.33333333,30.0086446 C5.33333333,37.7473919 11.5621273,44.0177616 19.2465428,44.0177616 C26.9309583,44.0177616 33.1602247,37.7455021 33.1602247,30.0086446 C33.1602247,22.271787 26.9304859,16 19.2465428,16 Z M41.4668582,16.8215923 C37.6248867,16.8215923 34.5100172,22.7272298 34.5100172,30.0086446 C34.5100172,37.2900594 37.6248867,43.1956969 41.4668582,43.1956969 C45.3088297,43.1956969 48.4236992,37.2919492 48.4236992,30.0086446 C48.4236992,22.7272298 45.3088297,16.8215923 41.4668582,16.8215923 Z M52.2203154,18.19359 C50.8686331,18.19359 49.7730192,23.4850412 49.7730192,30.0086446 C49.7730192,36.532248 50.8686331,41.8236992 52.2198429,41.8236992 C53.5710528,41.8236992 54.6666667,36.5341378 54.6666667,30.0086446 C54.6666667,23.4836238 53.5719977,18.19359 52.2203154,18.19359 Z" id="Shape"></path>
            </g>
        </g>
    </g>
</svg>