<?xml version="1.0" encoding="UTF-8"?>
<svg width="54px" height="54px" viewBox="0 0 54 54" version="1.1" xmlns="http://www.w3.org/2000/svg" xmlns:xlink="http://www.w3.org/1999/xlink">
    <title>icon-email copy</title>
    <g id="Page-1" stroke="none" stroke-width="1" fill="none" fill-rule="evenodd">
        <g id="Artboard" transform="translate(-992.000000, -683.000000)" fill="#FAFAFA">
            <g id="icon-email-copy" transform="translate(989.000000, 680.000000)">
                <path d="M50,3.33333333 C53.68,3.33333333 56.6666667,6.32 56.6666667,10 L56.6666667,50 C56.6666667,53.68 53.68,56.6666667 50,56.6666667 L10,56.6666667 C6.32,56.6666667 3.33333333,53.68 3.33333333,50 L3.33333333,10 C3.33333333,6.32 6.32,3.33333333 10,3.33333333 L50,3.33333333 Z M24.3339633,32.2569298 L8.19866068,45.8254153 C8.42934041,45.9097662 8.67705838,45.9587433 8.93524702,45.9657792 L9.00000851,45.9666605 L51.0000004,45.9666605 C51.189863,45.9666605 51.3744292,45.9439839 51.5511383,45.9011914 L51.6170309,45.8842063 L35.5282445,32.3551631 L31.4912175,35.7499992 L31.4548184,35.7799923 C30.6015497,36.4688983 29.382588,36.4699747 28.5281765,35.7832216 L28.4877687,35.7499992 L24.3339633,32.2569298 Z M53.3333333,17.3827494 L37.1930775,30.9551634 L53.1992804,44.4147223 C53.2788482,44.1907863 53.3251834,43.9511047 53.3323534,43.7016104 L53.3333333,43.6333276 L53.3333333,17.3827494 Z M6.66666667,17.4005993 L6.66666667,43.6333276 C6.66666667,43.8216143 6.68896857,44.0046921 6.73107488,44.1800636 L6.74778819,44.2454618 L22.6691303,30.8569301 L6.66666667,17.4005993 Z M51.0000004,14 L9.00000851,14 C8.14028666,14 7.38916189,14.4649594 6.98437842,15.1571339 L6.96096889,15.1981104 L28.4877687,33.2999996 L28.5246911,33.3304152 C29.3657057,34.0090314 30.5617154,34.0196667 31.413857,33.3623212 L31.4548184,33.3299928 L31.4912175,33.2999996 L53.0322354,15.1859992 C52.639319,14.4915338 51.900717,14.0184665 51.0501605,14.0005285 L51.0000004,14 Z" id="Shape"></path>
            </g>
        </g>
    </g>
</svg>