<?xml version="1.0" encoding="UTF-8"?>
<svg width="54px" height="54px" viewBox="0 0 54 54" version="1.1" xmlns="http://www.w3.org/2000/svg" xmlns:xlink="http://www.w3.org/1999/xlink">
    <title>icon-linkedin</title>
    <defs>
        <filter id="filter-1">
            <feColorMatrix in="SourceGraphic" type="matrix" values="0 0 0 0 0.980392 0 0 0 0 0.980392 0 0 0 0 0.980392 0 0 0 1.000000 0"></feColorMatrix>
        </filter>
    </defs>
    <g id="Page-1" stroke="none" stroke-width="1" fill="none" fill-rule="evenodd">
        <g id="Artboard" transform="translate(-747.000000, -683.000000)">
            <g id="linedin" transform="translate(744.000000, 680.000000)" filter="url(#filter-1)">
                <g transform="translate(3.333333, 3.333333)">
                    <path d="M48.8778964,0 C51.3385663,0 53.3333333,1.99339161 53.3333333,4.45543687 L53.3333333,48.8778964 C53.3333333,51.3385663 51.3399417,53.3333333 48.8778964,53.3333333 L4.45543687,53.3333333 C1.99476703,53.3333333 0,51.3399417 0,48.8778964 L0,4.45543687 C0,1.99476703 1.99339161,0 4.45543687,0 L48.8778964,0 Z M36.05,20 C32.0823,20 29.427934,21.838232 28.3650544,23.8996872 L28.3333333,23.9622222 L28.3333333,20.3333333 L21.1111111,20.3333333 L21.1111111,45.8888889 L28.8888889,45.8888889 L28.8888889,33.51 C28.8888889,29.3611111 30.4166667,26.7222222 34.0888889,26.7222222 C36.7101889,26.7222222 37.7567949,29.1212892 37.7774649,33.3803682 L37.7777778,33.51 L37.7777778,45.8888889 L45.5555556,45.8888889 L45.5555556,31.7744444 C45.5555556,24.1533333 43.7322222,20 36.05,20 Z M15.5555556,20 L7.77777778,20 L7.77777778,45.5555556 L15.5555556,45.5555556 L15.5555556,20 Z M11.6666667,6.66666667 C8.90555556,6.66666667 6.66666667,8.90555556 6.66666667,11.6666667 C6.66666667,14.4277778 8.90555556,16.6666667 11.6666667,16.6666667 C14.4277778,16.6666667 16.6666667,14.4277778 16.6666667,11.6666667 C16.6666667,8.90555556 14.4277778,6.66666667 11.6666667,6.66666667 Z" id="Shape" fill="#161614" fill-rule="nonzero"></path>
                </g>
            </g>
        </g>
    </g>
</svg>