<?xml version="1.0" encoding="UTF-8"?>
<svg width="450px" height="450px" viewBox="0 0 450 450" version="1.1" xmlns="http://www.w3.org/2000/svg" xmlns:xlink="http://www.w3.org/1999/xlink">
    <!-- Generator: Sketch 60.1 (88133) - https://sketch.com -->
    <title>icon-github</title>
    <desc>Created with Sketch.</desc>
    <g id="icon-github" stroke="none" stroke-width="1" fill="none" fill-rule="evenodd">
        <g id="Group" transform="translate(25.000000, 31.000000)" fill="#161614" fill-rule="nonzero">
            <path d="M199.227273,-2.84217094e-14 C89.2113636,-2.84217094e-14 0,89.0977273 0,199.009091 C0,286.936364 57.0840909,361.531818 136.243182,387.85 C146.2,389.690909 149.856818,383.531818 149.856818,378.275 C149.856818,373.529545 149.670455,357.852273 149.584091,341.222727 C94.1590909,353.261364 82.4636364,317.743182 82.4636364,317.743182 C73.4022727,294.738636 60.3431818,288.625 60.3431818,288.625 C42.2681818,276.272727 61.7068182,276.525 61.7068182,276.525 C81.7136364,277.929545 92.2477273,297.034091 92.2477273,297.034091 C110.015909,327.459091 138.852273,318.661364 150.222727,313.579545 C152.009091,300.715909 157.172727,291.936364 162.870455,286.965909 C118.620455,281.934091 72.1022727,264.868182 72.1022727,188.615909 C72.1022727,166.888636 79.8840909,149.134091 92.6295455,135.197727 C90.5613636,130.186364 83.7431818,109.945455 94.5613636,82.5318182 C94.5613636,82.5318182 111.288636,77.1840909 149.361364,102.931818 C165.252273,98.5227273 182.293182,96.3113636 199.225,96.2363636 C216.156818,96.3113636 233.213636,98.5227273 249.134091,102.931818 C287.163636,77.1840909 303.868182,82.5318182 303.868182,82.5318182 C314.713636,109.945455 307.890909,130.186364 305.822727,135.197727 C318.595455,149.134091 326.325,166.886364 326.325,188.615909 C326.325,265.05 279.718182,281.881818 235.356818,286.806818 C242.502273,292.984091 248.868182,305.095455 248.868182,323.661364 C248.868182,350.288636 248.638636,371.718182 248.638636,378.275 C248.638636,383.570455 252.222727,389.775 262.322727,387.820455 C341.438636,361.477273 398.452273,286.906818 398.452273,199.009091 C398.452273,89.0977273 309.252273,-2.84217094e-14 199.225,-2.84217094e-14" id="Path"></path>
            <path d="M74.6181818,283.493182 C74.1795455,284.479545 72.6181818,284.777273 71.2022727,284.1 C69.7568182,283.45 68.9454545,282.1 69.4136364,281.109091 C69.8454545,280.090909 71.4022727,279.806818 72.8454545,280.490909 C74.2931818,281.138636 75.1181818,282.5 74.6181818,283.490909 M84.4181818,292.227273 C83.4681818,293.106818 81.6090909,292.697727 80.35,291.306818 C79.0454545,289.920455 78.8022727,288.065909 79.7659091,287.170455 C80.7431818,286.293182 82.5477273,286.702273 83.8522727,288.090909 C85.1568182,289.495455 85.4090909,291.338636 84.4159091,292.227273 M91.1409091,303.402273 C89.9181818,304.25 87.9227273,303.454545 86.6886364,301.684091 C85.4681818,299.915909 85.4681818,297.793182 86.7159091,296.943182 C87.9522727,296.093182 89.9204545,296.856818 91.1704545,298.613636 C92.3886364,300.413636 92.3886364,302.536364 91.1386364,303.402273 M102.509091,316.345455 C101.418182,317.547727 99.0931818,317.225 97.3886364,315.584091 C95.6477273,313.979545 95.1613636,311.702273 96.2568182,310.497727 C97.3636364,309.293182 99.7022727,309.634091 101.415909,311.261364 C103.147727,312.861364 103.675,315.156818 102.511364,316.345455 M117.202273,320.715909 C116.725,322.272727 114.481818,322.981818 112.225,322.320455 C109.975,321.638636 108.497727,319.811364 108.952273,318.236364 C109.422727,316.668182 111.672727,315.929545 113.945455,316.638636 C116.195455,317.318182 117.672727,319.129545 117.204545,320.715909 M133.927273,322.568182 C133.984091,324.209091 132.070455,325.570455 129.7,325.6 C127.318182,325.652273 125.393182,324.325 125.368182,322.709091 C125.368182,321.052273 127.236364,319.704545 129.618182,319.663636 C131.988636,319.618182 133.927273,320.936364 133.927273,322.568182 M150.356818,321.938636 C150.640909,323.540909 148.993182,325.186364 146.643182,325.622727 C144.329545,326.043182 142.188636,325.054545 141.893182,323.468182 C141.606818,321.827273 143.284091,320.184091 145.593182,319.756818 C147.947727,319.347727 150.056818,320.311364 150.356818,321.938636" id="Shape"></path>
        </g>
    </g>
</svg>