<?xml version="1.0" encoding="UTF-8"?>
<svg width="54px" height="52px" viewBox="0 0 54 52" version="1.1" xmlns="http://www.w3.org/2000/svg" xmlns:xlink="http://www.w3.org/1999/xlink">
    <title>icon-github</title>
    <defs>
        <filter id="filter-1">
            <feColorMatrix in="SourceGraphic" type="matrix" values="0 0 0 0 0.980392 0 0 0 0 0.980392 0 0 0 0 0.980392 0 0 0 1.000000 0"></feColorMatrix>
        </filter>
    </defs>
    <g id="Page-1" stroke="none" stroke-width="1" fill="none" fill-rule="evenodd">
        <g id="Artboard" transform="translate(-1195.000000, -30.000000)">
            <g id="Group" transform="translate(1192.000000, 26.000000)" filter="url(#filter-1)">
                <g transform="translate(3.333333, 4.133333)">
                    <path d="M26.5636364,-3.78956126e-15 C11.8948485,-3.78956126e-15 0,11.879697 0,26.5345455 C0,38.2581818 7.61121212,48.2042424 18.1657576,51.7133333 C19.4933333,51.9587879 19.9809091,51.1375758 19.9809091,50.4366667 C19.9809091,49.8039394 19.9560606,47.7136364 19.9445455,45.4963636 C12.5545455,47.1015152 10.9951515,42.3657576 10.9951515,42.3657576 C9.7869697,39.2984848 8.04575758,38.4833333 8.04575758,38.4833333 C5.63575758,36.8363636 8.22757576,36.87 8.22757576,36.87 C10.8951515,37.0572727 12.299697,39.6045455 12.299697,39.6045455 C14.6687879,43.6612121 18.5136364,42.4881818 20.029697,41.8106061 C20.2678788,40.0954545 20.9563636,38.9248485 21.7160606,38.2621212 C15.8160606,37.5912121 9.61363636,35.3157576 9.61363636,25.1487879 C9.61363636,22.2518182 10.6512121,19.8845455 12.3506061,18.0263636 C12.0748485,17.3581818 11.1657576,14.6593939 12.6081818,11.0042424 C12.6081818,11.0042424 14.8384848,10.2912121 19.9148485,13.7242424 C22.0336364,13.1363636 24.3057576,12.8415152 26.5633333,12.8315152 C28.8209091,12.8415152 31.0951515,13.1363636 33.2178788,13.7242424 C38.2884848,10.2912121 40.5157576,11.0042424 40.5157576,11.0042424 C41.9618182,14.6593939 41.0521212,17.3581818 40.7763636,18.0263636 C42.4793939,19.8845455 43.51,22.2515152 43.51,25.1487879 C43.51,35.34 37.2957576,37.5842424 31.3809091,38.2409091 C32.3336364,39.0645455 33.1824242,40.6793939 33.1824242,43.1548485 C33.1824242,46.7051515 33.1518182,49.5624242 33.1518182,50.4366667 C33.1518182,51.1427273 33.629697,51.97 34.9763636,51.7093939 C45.5251515,48.1969697 53.1269697,38.2542424 53.1269697,26.5345455 C53.1269697,11.879697 41.2336364,-3.78956126e-15 26.5633333,-3.78956126e-15" id="Path" fill="#161614" fill-rule="nonzero"></path>
                    <path d="M9.94909091,37.7990909 C9.89060606,37.9306061 9.68242424,37.970303 9.49363636,37.88 C9.30090909,37.7933333 9.19272727,37.6133333 9.25515152,37.4812121 C9.31272727,37.3454545 9.52030303,37.3075758 9.71272727,37.3987879 C9.90575758,37.4851515 10.0157576,37.6666667 9.94909091,37.7987879 M11.2557576,38.9636364 C11.1290909,39.0809091 10.8812121,39.0263636 10.7133333,38.8409091 C10.5393939,38.6560606 10.5069697,38.4087879 10.6354545,38.2893939 C10.7657576,38.1724242 11.0063636,38.2269697 11.180303,38.4121212 C11.3542424,38.5993939 11.3878788,38.8451515 11.2554545,38.9636364 M12.1521212,40.4536364 C11.9890909,40.5666667 11.7230303,40.4606061 11.5584848,40.2245455 C11.3957576,39.9887879 11.3957576,39.7057576 11.5621212,39.5924242 C11.7269697,39.4790909 11.9893939,39.5809091 12.1560606,39.8151515 C12.3184848,40.0551515 12.3184848,40.3381818 12.1518182,40.4536364 M13.6678788,42.1793939 C13.5224242,42.339697 13.2124242,42.2966667 12.9851515,42.0778788 C12.7530303,41.8639394 12.6881818,41.560303 12.8342424,41.399697 C12.9818182,41.2390909 13.2936364,41.2845455 13.5221212,41.5015152 C13.7530303,41.7148485 13.8233333,42.0209091 13.6681818,42.1793939 M15.6269697,42.7621212 C15.5633333,42.969697 15.2642424,43.0642424 14.9633333,42.9760606 C14.6633333,42.8851515 14.4663636,42.6415152 14.5269697,42.4315152 C14.589697,42.2224242 14.889697,42.1239394 15.1927273,42.2184848 C15.4927273,42.3090909 15.689697,42.5506061 15.6272727,42.7621212 M17.8569697,43.0090909 C17.8645455,43.2278788 17.6093939,43.4093939 17.2933333,43.4133333 C16.9757576,43.420303 16.7190909,43.2433333 16.7157576,43.0278788 C16.7157576,42.8069697 16.9648485,42.6272727 17.2824242,42.6218182 C17.5984848,42.6157576 17.8569697,42.7915152 17.8569697,43.0090909 M20.0475758,42.9251515 C20.0854545,43.1387879 19.8657576,43.3581818 19.5524242,43.4163636 C19.2439394,43.4724242 18.9584848,43.3406061 18.9190909,43.1290909 C18.8809091,42.910303 19.1045455,42.6912121 19.4124242,42.6342424 C19.7263636,42.579697 20.0075758,42.7081818 20.0475758,42.9251515" id="Shape" fill="#161614" fill-rule="nonzero"></path>
                </g>
            </g>
        </g>
    </g>
</svg>