<?xml version="1.0" encoding="UTF-8"?>
<svg width="54px" height="54px" viewBox="0 0 54 54" version="1.1" xmlns="http://www.w3.org/2000/svg" xmlns:xlink="http://www.w3.org/1999/xlink">
    <title>icon-twitter</title>
    <defs>
        <filter id="filter-1">
            <feColorMatrix in="SourceGraphic" type="matrix" values="0 0 0 0 0.980392 0 0 0 0 0.980392 0 0 0 0 0.980392 0 0 0 1.000000 0"></feColorMatrix>
        </filter>
    </defs>
    <g id="Page-1" stroke="none" stroke-width="1" fill="none" fill-rule="evenodd">
        <g id="Artboard" transform="translate(-829.000000, -683.000000)">
            <g id="Twitter_Social_Icon_Rounded_Square_Color" transform="translate(826.000000, 680.000000)" filter="url(#filter-1)">
                <g transform="translate(3.333333, 3.333333)">
                    <path d="M46.6666667,0 C50.3466667,0 53.3333333,2.98666667 53.3333333,6.66666667 L53.3333333,46.6666667 C53.3333333,50.3466667 50.3466667,53.3333333 46.6666667,53.3333333 L6.66666667,53.3333333 C2.98666667,53.3333333 0,50.3466667 0,46.6666667 L0,6.66666667 C0,2.98666667 2.98666667,0 6.66666667,0 L46.6666667,0 Z M33.08,13.12 C29.3066667,13.12 26.24,16.1866667 26.24,19.96 C26.24,20.4933333 26.3066667,21.0133333 26.4133333,21.52 C20.7333333,21.24 15.6933333,18.5066667 12.32,14.3733333 C11.7333333,15.3866667 11.4,16.56 11.4,17.8133333 C11.4,20.1866667 12.6133333,22.28 14.44,23.5066667 C13.32,23.4666667 12.2666667,23.16 11.3466667,22.6533333 L11.3466667,22.7466667 C11.3466667,26.0533333 13.7066667,28.8266667 16.8266667,29.4533333 C16.2533333,29.6133333 15.6533333,29.6933333 15.0266667,29.6933333 C14.5866667,29.6933333 14.16,29.6533333 13.7466667,29.5733333 C14.6133333,32.2933333 17.1466667,34.2666667 20.1333333,34.32 C17.7866667,36.16 14.84,37.2533333 11.64,37.2533333 C11.0933333,37.2533333 10.5466667,37.2266667 10.0133333,37.16 C13.0266667,39.08 16.6266667,40.2133333 20.48,40.2133333 C33.0533333,40.2133333 39.9333333,29.7866667 39.9333333,20.76 C39.9333333,20.4666667 39.9333333,20.1733333 39.92,19.88 C41.2533333,18.92 42.4133333,17.7066667 43.3333333,16.3333333 C42.1066667,16.88 40.7866667,17.24 39.4,17.4133333 C40.8133333,16.5733333 41.8933333,15.2266667 42.4133333,13.6266667 C41.0933333,14.4133333 39.6266667,14.9733333 38.0666667,15.28 C36.8133333,13.9466667 35.04,13.12 33.08,13.12 Z" id="Shape" fill="#161614" fill-rule="nonzero"></path>
                </g>
            </g>
        </g>
    </g>
</svg>