<?xml version="1.0" encoding="UTF-8"?>
<svg width="450px" height="450px" viewBox="0 0 450 450" version="1.1" xmlns="http://www.w3.org/2000/svg" xmlns:xlink="http://www.w3.org/1999/xlink">
    <!-- Generator: Sketch 60.1 (88133) - https://sketch.com -->
    <title>icon-location</title>
    <desc>Created with Sketch.</desc>
    <g id="icon-location" stroke="none" stroke-width="1" fill="none" fill-rule="evenodd">
        <path d="M215.460156,442.633333 C196.960156,441.166667 180.693489,436.766667 164.460156,428.833333 C115.893489,405.1 85.4601559,354.733333 87.0601559,300.833333 C87.6934892,280.666667 92.1268225,262.333333 100.593489,244.833333 C104.226823,237.333333 106.693489,233.066667 111.626823,225.666667 C113.793489,222.466667 140.160156,180.033333 170.293489,131.433333 C200.393489,82.8 225.160156,43 225.293489,43 C225.426823,43 250.193489,82.8 280.293489,131.4 C310.426823,180.033333 336.793489,222.466667 338.960156,225.666667 C343.893489,233.066667 346.360156,237.333333 349.993489,244.833333 C364.026823,273.8 367.326823,307.133333 359.293489,338.866667 C351.160156,370.8 331.893489,398.7 304.626823,417.9 C281.426823,434.266667 252.926823,443.2 224.493489,442.966667 C221.360156,442.933333 217.293489,442.8 215.460156,442.633333 Z M236.626823,383.833333 C251.293489,381.166667 263.726823,374.8 273.960156,364.666667 C299.593489,339.3 301.460156,298.666667 278.293489,270.933333 C267.126823,257.533333 251.060156,248.833333 233.493489,246.666667 C229.693489,246.2 220.893489,246.2 217.093489,246.666667 C188.660156,250.166667 165.426823,270.5 158.293489,298.133333 C153.593489,316.3 156.560156,336 166.393489,351.9 C177.393489,369.6 195.126823,381.1 216.293489,384.166667 C220.626823,384.8 232.326823,384.6 236.626823,383.833333 Z" id="Shape" fill="#8F96A1" fill-rule="nonzero" transform="translate(225.295622, 242.985562) rotate(180.000000) translate(-225.295622, -242.985562) "></path>
    </g>
</svg>