<?xml version="1.0" encoding="UTF-8"?>
<svg width="450px" height="450px" viewBox="0 0 450 450" version="1.1" xmlns="http://www.w3.org/2000/svg" xmlns:xlink="http://www.w3.org/1999/xlink">
    <!-- Generator: Sketch 60.1 (88133) - https://sketch.com -->
    <title>icon-ghop</title>
    <desc>Created with Sketch.</desc>
    <g id="icon-ghop" stroke="none" stroke-width="1" fill="none" fill-rule="evenodd">
        <path d="M351.635471,355.107349 C333.678817,362.037697 314.796797,366.277124 295.600973,367.68832 C309.686669,343.854941 334.217359,303.631067 351.407927,288.055326 L351.635471,355.107349 L351.635471,355.107349 Z M352.575007,424.98532 L151.022571,424.98532 C153.540233,420.324342 156.116616,414.27608 158.75172,406.840536 C161.885953,398.003028 164.741261,389.877512 167.435086,382.515368 C195.582324,397.651738 227.05151,405.551825 259.01046,405.504633 C292.598862,405.504633 324.190751,396.94605 351.716212,381.913478 L351.826314,414.2614 C352.017158,418.43059 352.266722,422.00523 352.575007,424.98532 Z M425,311.756583 L425,375.189926 C425,398.274612 409.020552,417.81402 387.543353,423.392513 C384.761446,404.579778 384.98899,415.076154 383.653087,393.34939 C383.18332,385.6129 381.884118,378.676484 381.656574,362.858519 L381.641894,361.750161 C398.832474,347.672589 413.495505,330.765546 425,311.756583 L425,311.756583 Z M210.998715,25 L374.999082,25 C402.495183,25 425,47.4093954 425,74.8027342 L425,304.166896 C412.591769,318.242487 398.124447,330.358807 382.089641,340.104138 C382.750252,325.189008 383.939352,310.229838 384.306358,295.241307 C385.179833,260.22158 390.420681,242.862189 381.751996,239.771997 C375.652353,237.599321 369.427929,237.753464 363.130104,240.256446 C356.824938,242.752087 350.35095,245.90834 345.778053,251.596935 C319.874759,283.754014 275.16607,325.020185 261.836407,359.195798 C260.813702,361.739403 260.053719,364.3809 259.568309,367.07909 C184.368749,359.026975 122.623635,308.820534 101.241857,241.966694 C105.60923,233.37141 109.015047,223.249381 110.98954,212.261217 C115.922103,184.647674 110.138086,160.058262 97.8286999,150.684925 C111.55473,93.3365446 154.479769,46.5065602 210.998715,25 L210.998715,25 Z M75.0009175,25 L206.851546,25 C145.106432,42.2199284 95.7881457,89.2554363 75.3826039,149.598587 C61.4290302,157.100193 48.7673181,178.136985 44.1357005,203.981558 C38.0947793,237.841545 48.1507478,267.157996 66.611157,269.448115 C68.9966969,269.741719 71.4262776,269.565556 73.8264978,268.978347 C86.1810688,308.771511 111.006881,343.535883 144.636664,368.136068 C143.359483,371.218919 141.847417,375.050463 140.012386,380.049087 C131.28498,403.559501 126.858886,417.454354 126.726764,421.674924 C126.673049,422.77768 126.670599,423.882336 126.719424,424.98532 L74.9935774,424.98532 C47.4901367,424.98532 25,402.568584 25,375.189926 L25,74.8027342 C25.0073401,47.4093954 47.504817,25 75.0009175,25 Z" id="Shape" fill="#161614"></path>
    </g>
</svg>