<?xml version="1.0" encoding="UTF-8"?>
<svg width="450px" height="450px" viewBox="0 0 450 450" version="1.1" xmlns="http://www.w3.org/2000/svg" xmlns:xlink="http://www.w3.org/1999/xlink">
    <!-- Generator: Sketch 60.1 (88133) - https://sketch.com -->
    <title>icon-linkedin</title>
    <desc>Created with Sketch.</desc>
    <g id="icon-linkedin" stroke="none" stroke-width="1" fill="none" fill-rule="evenodd">
        <g id="linedin" transform="translate(25.000000, 25.000000)" fill="#161614" fill-rule="nonzero">
            <path d="M366.584223,0 C385.039247,0 400,14.9504371 400,33.4157765 L400,366.584223 C400,385.039247 385.049563,400 366.584223,400 L33.4157765,400 C14.9607528,400 0,385.049563 0,366.584223 L0,33.4157765 C0,14.9607528 14.9504371,0 33.4157765,0 L366.584223,0 Z M270.375,150 C240.61725,150 220.709505,163.78674 212.737908,179.247654 L212.5,179.716667 L212.5,152.5 L158.333333,152.5 L158.333333,344.166667 L216.666667,344.166667 L216.666667,251.325 C216.666667,220.208333 228.125,200.416667 255.666667,200.416667 C275.326417,200.416667 283.175962,218.409669 283.330987,250.352762 L283.333333,251.325 L283.333333,344.166667 L341.666667,344.166667 L341.666667,238.308333 C341.666667,181.15 327.991667,150 270.375,150 Z M116.666667,150 L58.3333333,150 L58.3333333,341.666667 L116.666667,341.666667 L116.666667,150 Z M87.5,50 C66.7916667,50 50,66.7916667 50,87.5 C50,108.208333 66.7916667,125 87.5,125 C108.208333,125 125,108.208333 125,87.5 C125,66.7916667 108.208333,50 87.5,50 Z" id="Shape"></path>
        </g>
    </g>
</svg>