<?xml version="1.0" encoding="UTF-8"?>
<svg width="187px" height="25px" viewBox="0 0 187 25" version="1.1" xmlns="http://www.w3.org/2000/svg" xmlns:xlink="http://www.w3.org/1999/xlink">
    <title>pjr-logo</title>
    <g id="Page-1" stroke="none" stroke-width="1" fill="none" fill-rule="evenodd">
        <g id="Artboard" transform="translate(-745.000000, -86.000000)" fill-rule="nonzero">
            <g id="Group" transform="translate(745.000000, 86.000000)">
                <polygon id="Path" fill="#FFFFFF" points="0 19.6542655 10.7160682 14.1847298 10.7160682 12.8624245 0 7.39288885 0 9.28618965 8.50101501 13.5235772 0 17.7609647"></polygon>
                <polygon id="Path" fill="#FFFFFF" points="18.4267703 24.1621245 18.4267703 22.8398192 7.11203903 22.8398192 7.11203903 24.1621245"></polygon>
                <path d="M32.9805017,0.601047874 C37.4704745,0.601047874 40.1644581,3.00523937 40.1644581,7.36283645 C40.1644581,11.6768576 37.5240847,14.0763459 33.1146612,14.1239042 L32.9805017,14.124625 L29.3885236,14.124625 L29.3885236,16.8293405 L30.8851811,16.8293405 L30.8851811,21.0366756 L22.5038987,21.0366756 L22.5038987,16.8293405 L24.0005563,16.8293405 L24.0005563,4.80838299 L22.5038987,4.80838299 L22.5038987,0.601047874 L32.9805017,0.601047874 Z M32.3818387,4.80838299 L29.3885236,4.80838299 L29.3885236,9.91728992 L32.3818387,9.91728992 C33.5791648,9.91728992 34.6268251,9.16598008 34.6268251,7.36283645 C34.6268251,5.59078152 33.6149796,4.8346029 32.4436313,4.80905455 L32.3818387,4.80838299 Z" id="Shape" fill="#54C9D1"></path>
                <path d="M48.6954062,5.7099548 C52.6959719,5.7099548 54.9362887,6.59358533 54.980695,10.693631 L54.981368,10.8188617 L54.981368,16.8293405 L56.4780256,16.8293405 L56.4780256,21.0366756 L49.8927323,21.0366756 L49.8927323,19.5340559 L49.832866,19.5340559 C48.7852057,20.7361516 47.468147,21.3371995 45.7020911,21.3371995 C43.0679738,21.3371995 41.2121184,19.5340559 41.2121184,16.5288165 C41.2121184,12.6015697 45.025991,11.7375754 47.425797,11.7206883 L49.8927323,11.7204335 L49.8927323,11.1193857 C49.8927323,10.0074471 48.9648046,9.91728992 47.4980802,9.91728992 C47.1738044,9.91728992 46.8495286,9.93815964 46.5079303,9.96250764 L46.3007541,9.97739471 L46.3007541,11.1193857 L42.1101129,11.1193857 L42.1101129,6.46126464 C44.3550993,6.01047874 46.7497514,5.7099548 48.6954062,5.7099548 Z M49.8927323,16.8293405 L49.8927323,14.7256729 L48.1576742,14.7258924 C47.2907548,14.7296965 46.3007541,14.7994379 46.3007541,16.0780306 C46.3007541,17.1298644 47.1987487,17.4303883 47.7974117,17.4303883 C48.5158073,17.4303883 49.3721349,17.1811218 49.8367358,16.8687077 L49.8927323,16.8293405 Z" id="Shape" fill="#54C9D1"></path>
                <path d="M63.0633189,21.3371995 C64.859308,21.3371995 66.3559656,20.5858897 67.4934253,19.233532 L67.5532916,19.233532 L67.5532916,21.0366756 L74.138585,21.0366756 L74.138585,16.8293405 L72.6419274,16.8293405 L72.6419274,6.01047874 L66.0566341,6.01047874 L66.0566341,10.2178139 L67.5532916,10.2178139 L67.5532916,16.5288165 C66.9546286,16.8293405 66.2062998,17.1298644 65.457971,17.1298644 C64.4103107,17.1298644 63.661982,16.5288165 63.661982,15.0261968 L63.661982,6.01047874 L57.0766886,6.01047874 L57.0766886,10.2178139 L58.5733462,10.2178139 L58.5733462,16.2282926 C58.5733462,19.233532 60.0700038,21.3371995 63.0633189,21.3371995 Z" id="Path" fill="#54C9D1"></path>
                <polygon id="Path" fill="#54C9D1" points="82.8191989 21.0366756 82.8191989 16.8293405 81.3225413 16.8293405 81.3225413 1.26882631e-13 74.737248 1.26882631e-13 74.737248 4.20733512 76.2339056 4.20733512 76.2339056 16.8293405 74.737248 16.8293405 74.737248 21.0366756"></polygon>
                <polygon id="Path" fill="#FFFFFF" points="88.9446101 21.0366756 88.9446101 17.3702836 86.8492895 17.3702836 86.8492895 21.0366756"></polygon>
                <path d="M103.4031,0.601047874 C107.893072,0.601047874 110.587056,2.8549774 110.587056,7.21257449 C110.587056,9.84608886 109.426287,11.9551765 107.390478,12.8800459 L107.294409,12.9225293 L110.557123,16.8293405 L111.784382,16.8293405 L111.784382,21.0366756 L103.103768,21.0366756 L103.103768,16.8293405 L103.732364,16.8293405 L101.367645,13.8241011 L99.8111216,13.8241011 L99.8111216,16.8293405 L101.307779,16.8293405 L101.307779,21.0366756 L92.9264968,21.0366756 L92.9264968,16.8293405 L94.4231543,16.8293405 L94.4231543,4.80838299 L92.9264968,4.80838299 L92.9264968,0.601047874 L103.4031,0.601047874 Z M102.866229,4.80892208 L99.8111216,4.80838299 L99.8111216,9.61676598 L102.804437,9.61676598 C104.001763,9.61676598 105.049423,9.01571811 105.049423,7.21257449 C105.049423,5.44051955 104.037578,4.82946612 102.866229,4.80892208 L102.866229,4.80892208 Z" id="Shape" fill="#54C9D1"></path>
                <path d="M120.015999,5.7099548 C124.016564,5.7099548 126.256881,6.59358533 126.301288,10.693631 L126.301961,10.8188617 L126.301961,16.8293405 L127.798618,16.8293405 L127.798618,21.0366756 L121.213325,21.0366756 L121.213325,19.5340559 L121.153459,19.5340559 C120.105798,20.7361516 118.78874,21.3371995 117.022684,21.3371995 C114.388566,21.3371995 112.532711,19.5340559 112.532711,16.5288165 C112.532711,12.6015697 116.346584,11.7375754 118.74639,11.7206883 L121.213325,11.7204335 L121.213325,11.1193857 C121.213325,10.0074471 120.285397,9.91728992 118.818673,9.91728992 C118.494397,9.91728992 118.170121,9.93815964 117.828523,9.96250764 L117.621347,9.97739471 L117.621347,11.1193857 L113.430705,11.1193857 L113.430705,6.46126464 C115.675692,6.01047874 118.070344,5.7099548 120.015999,5.7099548 Z M121.213325,16.8293405 L121.213325,14.7256729 L119.478267,14.7258924 C118.611347,14.7296965 117.621347,14.7994379 117.621347,16.0780306 C117.621347,17.1298644 118.519341,17.4303883 119.118004,17.4303883 C119.8364,17.4303883 120.692727,17.1811218 121.157328,16.8687077 L121.213325,16.8293405 Z" id="Shape" fill="#54C9D1"></path>
                <path d="M136.179901,21.0366756 L136.179901,16.8293405 L134.982575,16.8293405 L134.982575,10.5183378 C135.581238,10.2178139 136.329566,9.91728992 137.077895,9.91728992 C138.275221,9.91728992 138.873884,10.5183378 138.873884,12.0209575 L138.873884,16.8293405 L137.676558,16.8293405 L137.676558,21.0366756 L145.459178,21.0366756 L145.459178,16.8293405 L143.96252,16.8293405 L143.96252,10.8188617 C143.96252,7.81362236 142.465862,5.7099548 139.472547,5.7099548 C137.676558,5.7099548 136.179901,6.46126464 135.042441,7.81362236 L134.982575,7.81362236 L134.982575,6.01047874 L128.397281,6.01047874 L128.397281,10.2178139 L129.893939,10.2178139 L129.893939,16.8293405 L128.397281,16.8293405 L128.397281,21.0366756 L136.179901,21.0366756 Z" id="Path" fill="#54C9D1"></path>
                <path d="M160.725085,4.25544825e-13 L160.725085,16.8293405 L162.221742,16.8293405 L162.221742,21.0366756 L155.636449,21.0366756 L155.636449,19.5340559 L155.576583,19.5340559 C154.738454,20.5858897 153.211864,21.3371995 151.745139,21.3371995 C147.554498,21.3371995 146.357172,17.7309123 146.357172,13.5235772 C146.357172,9.31624204 147.85383,5.7099548 152.044471,5.7099548 C153.32687,5.7099548 154.666026,6.27978482 155.509306,7.28073622 L155.576583,7.36283645 L155.636449,7.36283645 L155.636449,4.20733512 L154.139791,4.20733512 L154.139791,4.25544825e-13 L160.725085,4.25544825e-13 Z M153.84046,9.91728992 C152.194137,9.91728992 151.745139,11.4199096 151.745139,13.5235772 L151.746436,13.7160285 C151.773903,15.718291 152.244793,17.1298644 153.84046,17.1298644 C154.671936,17.1298644 155.221121,16.8206834 155.559301,16.5840263 L155.636449,16.5288165 L155.636449,10.5183378 L155.559301,10.463128 C155.221121,10.2264709 154.671936,9.91728992 153.84046,9.91728992 Z" id="Shape" fill="#54C9D1"></path>
                <polygon id="Path" fill="#54C9D1" points="170.902356 21.0366756 170.902356 16.8293405 169.405699 16.8293405 169.405699 1.26882631e-13 162.820405 1.26882631e-13 162.820405 4.20733512 164.317063 4.20733512 164.317063 16.8293405 162.820405 16.8293405 162.820405 21.0366756"></polygon>
                <path d="M179.882302,5.7099548 C186.335889,5.7099548 187.011169,9.60636785 186.443969,14.4292613 L186.407729,14.7256729 L177.188318,14.7256729 C177.335447,16.2028245 178.610732,17.09913 180.530747,17.1290889 L180.885519,17.1296108 C181.928411,17.126568 183.25801,17.0870116 185.114349,16.5727775 L185.270269,16.5288165 L185.868932,20.5858897 C183.773611,21.1869376 181.827957,21.3371995 179.882302,21.3371995 C173.895671,21.3371995 171.800351,18.3319602 171.800351,13.5235772 C171.800351,8.71519417 173.895671,5.7099548 179.882302,5.7099548 Z M179.58297,9.61676598 C178.262918,9.61676598 177.374083,10.1940124 177.198194,11.4899305 L177.188318,11.5701716 L181.378959,11.5701716 L181.392803,11.4474372 C181.50638,10.3171547 181.172524,9.61676598 179.58297,9.61676598 Z" id="Shape" fill="#54C9D1"></path>
            </g>
        </g>
    </g>
</svg>