<?xml version="1.0" encoding="UTF-8"?>
<svg width="243px" height="32px" viewBox="0 0 243 32" version="1.1" xmlns="http://www.w3.org/2000/svg" xmlns:xlink="http://www.w3.org/1999/xlink">
    <!-- Generator: Sketch 61.2 (89653) - https://sketch.com -->
    <title>pjr-logo</title>
    <desc>Created with Sketch.</desc>
    <g id="Paul@PaulRandle" stroke="none" stroke-width="1" fill="none" fill-rule="evenodd">
        <g id="Artboard" transform="translate(-52.000000, -242.000000)">
            <g id="pjr-logo" transform="translate(52.000000, 242.000000)">
                <g id="Group">
                    <polygon id="Path" fill="#565550" fill-rule="nonzero" points="0 25.5505451 13.9308887 18.4401488 13.9308887 16.7211519 0 9.6107555 0 12.0720465 11.0513195 17.5806503 0 23.0892541"></polygon>
                    <polygon id="Path" fill="#565550" fill-rule="nonzero" points="23.9548014 31.4107619 23.9548014 29.691765 9.24565074 29.691765 9.24565074 31.4107619"></polygon>
                    <path d="M42.8746523,0.781362236 C48.7116168,0.781362236 52.2137955,3.90681118 52.2137955,9.57168739 C52.2137955,15.1799148 48.7813101,18.2992496 43.0490596,18.3610755 L42.8746523,18.3620125 L38.2050806,18.3620125 L38.2050806,21.8781426 L40.1507355,21.8781426 L40.1507355,27.3476783 L29.2550684,27.3476783 L29.2550684,21.8781426 L31.2007232,21.8781426 L31.2007232,6.25089789 L29.2550684,6.25089789 L29.2550684,0.781362236 L42.8746523,0.781362236 Z M42.0963903,6.25089789 L38.2050806,6.25089789 L38.2050806,12.8924769 L42.0963903,12.8924769 C43.6529142,12.8924769 45.0148726,11.9157741 45.0148726,9.57168739 C45.0148726,7.26801597 43.6994734,6.28498377 42.1767207,6.25177091 L42.0963903,6.25089789 Z" id="Shape" fill="#194474" fill-rule="nonzero"></path>
                    <path d="M63.3040281,7.42294124 C68.5047635,7.42294124 71.4171753,8.57166093 71.4749035,13.9017203 L71.4757785,14.0645202 L71.4757785,21.8781426 L73.4214333,21.8781426 L73.4214333,27.3476783 L64.860552,27.3476783 L64.860552,25.3942727 L64.7827258,25.3942727 C63.4207674,26.9569971 61.7085911,27.7383594 59.4127184,27.7383594 C55.9883659,27.7383594 53.5757539,25.3942727 53.5757539,21.4874615 C53.5757539,16.3820406 58.5337883,15.2588481 61.6535361,15.2368947 L64.860552,15.2365636 L64.860552,14.4552014 C64.860552,13.0096812 63.654246,12.8924769 61.7475042,12.8924769 C61.3259457,12.8924769 60.9043871,12.9196075 60.4603094,12.9512599 L60.1909804,12.9706131 L60.1909804,14.4552014 L54.7431468,14.4552014 L54.7431468,8.39964404 C57.6616291,7.81362236 60.7746768,7.42294124 63.3040281,7.42294124 Z M64.860552,21.8781426 L64.860552,19.1433748 L62.6049765,19.1436601 C61.4779812,19.1486054 60.1909804,19.2392692 60.1909804,20.9014398 C60.1909804,22.2688237 61.3583733,22.6595048 62.1366352,22.6595048 C63.0705495,22.6595048 64.1837754,22.3354583 64.7877565,21.92932 L64.860552,21.8781426 Z" id="Shape" fill="#194474" fill-rule="nonzero"></path>
                    <path d="M81.9823146,27.7383594 C84.3171004,27.7383594 86.2627553,26.7616566 87.7414529,25.0035916 L87.8192791,25.0035916 L87.8192791,27.3476783 L96.3801604,27.3476783 L96.3801604,21.8781426 L94.4345056,21.8781426 L94.4345056,7.81362236 L85.8736243,7.81362236 L85.8736243,13.283158 L87.8192791,13.283158 L87.8192791,21.4874615 C87.0410172,21.8781426 86.0681898,22.2688237 85.0953624,22.2688237 C83.733404,22.2688237 82.7605765,21.4874615 82.7605765,19.5340559 L82.7605765,7.81362236 L74.1996952,7.81362236 L74.1996952,13.283158 L76.1453501,13.283158 L76.1453501,21.0967804 C76.1453501,25.0035916 78.0910049,27.7383594 81.9823146,27.7383594 Z" id="Path" fill="#194474" fill-rule="nonzero"></path>
                    <polygon id="Path" fill="#194474" fill-rule="nonzero" points="107.664959 27.3476783 107.664959 21.8781426 105.719304 21.8781426 105.719304 1.64947421e-13 97.1584224 1.64947421e-13 97.1584224 5.46953565 99.1040772 5.46953565 99.1040772 21.8781426 97.1584224 21.8781426 97.1584224 27.3476783"></polygon>
                    <polygon id="Path" fill="#565550" fill-rule="nonzero" points="115.627993 27.3476783 115.627993 22.5813686 112.904076 22.5813686 112.904076 27.3476783"></polygon>
                    <path d="M134.42403,0.781362236 C140.260994,0.781362236 143.763173,3.71147062 143.763173,9.37634683 C143.763173,12.7999155 142.254174,15.5417295 139.607621,16.7440597 L139.482732,16.7992881 L143.72426,21.8781426 L145.319697,21.8781426 L145.319697,27.3476783 L134.034899,27.3476783 L134.034899,21.8781426 L134.852074,21.8781426 L131.777939,17.9713314 L129.754458,17.9713314 L129.754458,21.8781426 L131.700113,21.8781426 L131.700113,27.3476783 L120.804446,27.3476783 L120.804446,21.8781426 L122.750101,21.8781426 L122.750101,6.25089789 L120.804446,6.25089789 L120.804446,0.781362236 L134.42403,0.781362236 Z M133.726098,6.25159871 L129.754458,6.25089789 L129.754458,12.5017958 L133.645768,12.5017958 C135.202292,12.5017958 136.56425,11.7204335 136.56425,9.37634683 C136.56425,7.07267541 135.248851,6.27830596 133.726098,6.25159871 L133.726098,6.25159871 Z" id="Shape" fill="#194474" fill-rule="nonzero"></path>
                    <path d="M156.020798,7.42294124 C161.221534,7.42294124 164.133946,8.57166093 164.191674,13.9017203 L164.192549,14.0645202 L164.192549,21.8781426 L166.138204,21.8781426 L166.138204,27.3476783 L157.577322,27.3476783 L157.577322,25.3942727 L157.499496,25.3942727 C156.137538,26.9569971 154.425361,27.7383594 152.129489,27.7383594 C148.705136,27.7383594 146.292524,25.3942727 146.292524,21.4874615 C146.292524,16.3820406 151.250559,15.2588481 154.370306,15.2368947 L157.577322,15.2365636 L157.577322,14.4552014 C157.577322,13.0096812 156.371016,12.8924769 154.464275,12.8924769 C154.042716,12.8924769 153.621157,12.9196075 153.17708,12.9512599 L152.907751,12.9706131 L152.907751,14.4552014 L147.459917,14.4552014 L147.459917,8.39964404 C150.378399,7.81362236 153.491447,7.42294124 156.020798,7.42294124 Z M157.577322,21.8781426 L157.577322,19.1433748 L155.321747,19.1436601 C154.194752,19.1486054 152.907751,19.2392692 152.907751,20.9014398 C152.907751,22.2688237 154.075144,22.6595048 154.853406,22.6595048 C155.78732,22.6595048 156.900546,22.3354583 157.504527,21.92932 L157.577322,21.8781426 Z" id="Shape" fill="#194474" fill-rule="nonzero"></path>
                    <path d="M177.033871,27.3476783 L177.033871,21.8781426 L175.477347,21.8781426 L175.477347,13.6738391 C176.255609,13.283158 177.228436,12.8924769 178.201264,12.8924769 C179.757788,12.8924769 180.536049,13.6738391 180.536049,15.6272447 L180.536049,21.8781426 L178.979526,21.8781426 L178.979526,27.3476783 L189.096931,27.3476783 L189.096931,21.8781426 L187.151276,21.8781426 L187.151276,14.0645202 C187.151276,10.1577091 185.205621,7.42294124 181.314311,7.42294124 C178.979526,7.42294124 177.033871,8.39964404 175.555173,10.1577091 L175.477347,10.1577091 L175.477347,7.81362236 L166.916466,7.81362236 L166.916466,13.283158 L168.86212,13.283158 L168.86212,21.8781426 L166.916466,21.8781426 L166.916466,27.3476783 L177.033871,27.3476783 Z" id="Path" fill="#194474" fill-rule="nonzero"></path>
                    <path d="M208.94261,5.53208273e-13 L208.94261,21.8781426 L210.888265,21.8781426 L210.888265,27.3476783 L202.327384,27.3476783 L202.327384,25.3942727 L202.249558,25.3942727 C201.159991,26.7616566 199.175423,27.7383594 197.268681,27.7383594 C191.820848,27.7383594 190.264324,23.050186 190.264324,17.5806503 C190.264324,12.1111147 192.209979,7.42294124 197.657812,7.42294124 C199.324931,7.42294124 201.065834,8.16372026 202.162098,9.46495709 L202.249558,9.57168739 L202.327384,9.57168739 L202.327384,5.46953565 L200.381729,5.46953565 L200.381729,5.53208273e-13 L208.94261,5.53208273e-13 Z M199.992598,12.8924769 C197.852378,12.8924769 197.268681,14.8458825 197.268681,17.5806503 L197.270367,17.830837 C197.306075,20.4337783 197.91823,22.2688237 199.992598,22.2688237 C201.073517,22.2688237 201.787458,21.8668884 202.227091,21.5592342 L202.327384,21.4874615 L202.327384,13.6738391 L202.227091,13.6020664 C201.787458,13.2944122 201.073517,12.8924769 199.992598,12.8924769 Z" id="Shape" fill="#194474" fill-rule="nonzero"></path>
                    <polygon id="Path" fill="#194474" fill-rule="nonzero" points="222.173063 27.3476783 222.173063 21.8781426 220.227408 21.8781426 220.227408 1.64947421e-13 211.666527 1.64947421e-13 211.666527 5.46953565 213.612182 5.46953565 213.612182 21.8781426 211.666527 21.8781426 211.666527 27.3476783"></polygon>
                    <path d="M233.846992,7.42294124 C242.236656,7.42294124 243.11452,12.4882782 242.37716,18.7580397 L242.330047,19.1433748 L230.344813,19.1433748 C230.536081,21.0636718 232.193951,22.228869 234.689971,22.2678155 L235.151175,22.2684941 C236.506934,22.2645384 238.235412,22.213115 240.648654,21.5446108 L240.85135,21.4874615 L241.629612,26.7616566 C238.905695,27.5430188 236.376343,27.7383594 233.846992,27.7383594 C226.064373,27.7383594 223.340456,23.8315482 223.340456,17.5806503 C223.340456,11.3297524 226.064373,7.42294124 233.846992,7.42294124 Z M233.457861,12.5017958 C231.741794,12.5017958 230.586308,13.2522161 230.357652,14.9369096 L230.344813,15.041223 L235.792647,15.041223 L235.810644,14.8816684 C235.958294,13.4123011 235.524281,12.5017958 233.457861,12.5017958 Z" id="Shape" fill="#194474" fill-rule="nonzero"></path>
                </g>
            </g>
        </g>
    </g>
</svg>