<?xml version="1.0" encoding="UTF-8"?>
<svg width="124px" height="40px" viewBox="0 0 124 40" version="1.1" xmlns="http://www.w3.org/2000/svg" xmlns:xlink="http://www.w3.org/1999/xlink">
    <title>randles_logo_new</title>
    <g id="Page-1" stroke="none" stroke-width="1" fill="none" fill-rule="evenodd">
        <g id="randles_logo_new">
            <path d="M63.5458294,10.8506195 C67.4630754,10.8506195 68.5794905,13.4120631 68.6014271,16.2361146 L68.6018739,21.5346717 L68.6018739,21.5346717 L68.6029217,21.799984 L68.6029217,21.799984 L68.605337,22.0648628 C68.6160374,22.9461059 68.655087,23.8056703 68.7780725,24.4990305 L68.7971568,24.6017699 L66.232555,24.6017699 L66.0371568,23.0385841 L65.9638825,23.0385841 C65.2067143,24.0888496 63.8877763,24.8704425 62.2024665,24.8704425 C59.6867143,24.8704425 58.2456524,23.0141593 58.2456524,20.9380531 C58.2456524,17.6253204 61.0943607,15.9643597 65.6305099,15.9314717 L65.7684842,15.9309735 L65.7681574,15.7755943 L65.7681574,15.7755943 L65.7659403,15.6108826 L65.7659403,15.6108826 L65.7629308,15.5071323 L65.7629308,15.5071323 L65.7561274,15.3639762 L65.7561274,15.3639762 L65.7484123,15.253568 L65.7484123,15.253568 L65.7418021,15.1787613 L65.7418021,15.1787613 L65.73388,15.103147 C65.7324437,15.0904846 65.7309478,15.0777941 65.7293898,15.0650781 L65.7192769,14.9884993 L65.7192769,14.9884993 L65.7075552,14.9114419 L65.7075552,14.9114419 L65.6941057,14.8340377 L65.6941057,14.8340377 L65.6788098,14.7564182 L65.6788098,14.7564182 L65.6615487,14.678715 L65.6615487,14.678715 L65.6422035,14.6010598 C65.6387991,14.5881285 65.6353028,14.5752048 65.6317123,14.5622913 L65.6090185,14.4849547 C65.5970862,14.4463697 65.5842611,14.4079261 65.5704764,14.3696978 L65.5416075,14.2935505 C65.2497903,13.5606595 64.582627,12.9267257 63.0573338,12.9267257 C61.8937645,12.9267257 60.7071085,13.2730261 59.8564921,13.8085091 L59.7844135,13.8548673 L59.1982188,11.9741593 C60.1507851,11.3635398 61.7383958,10.8506195 63.5458294,10.8506195 Z M93.1288156,5.01309735 L95.9620899,5.01309735 L95.9622622,21.1384166 L95.9622622,21.1384166 L95.9647498,21.5272912 L95.9647498,21.5272912 L95.9679305,21.7910777 L95.9679305,21.7910777 L95.9747444,22.189957 L95.9747444,22.189957 L95.9805089,22.4559065 L95.9805089,22.4559065 L95.9907479,22.8512707 L95.9907479,22.8512707 L96.0026093,23.2380362 L96.0026093,23.2380362 L96.0203873,23.7319357 L96.0203873,23.7319357 L96.0299012,23.966303 L96.0299012,23.966303 L96.0496982,24.4026622 L96.0496982,24.4026622 L96.059789,24.6017699 L93.5684616,24.6017699 L93.4219129,22.5012389 L93.3486386,22.5012389 C92.64032,23.8690265 91.1748333,24.8704425 89.2697005,24.8704425 C86.2166032,24.8704425 83.8962492,22.159292 83.8962492,18.0070796 C83.8962492,13.439646 86.5097005,10.8506195 89.5139483,10.8506195 C91.219205,10.8506195 92.4521135,11.6063764 93.0501075,12.6069671 L93.079966,12.6580531 L93.1288156,12.6580531 L93.1288156,5.01309735 Z M109.131625,10.8506195 C112.917465,10.8506195 114.431802,14.0014159 114.431802,17.3231858 C114.431802,17.7515589 114.41099,18.117497 114.369367,18.4402109 L114.358527,18.52 L105.809855,18.52 C105.883129,21.5486726 107.763837,22.6966372 109.888793,22.6966372 C111.339496,22.6966372 112.350232,22.4419192 113.214109,22.0903109 L113.283837,22.0615929 L113.747908,24.0644248 C112.795342,24.5040708 111.30543,24.8704425 109.473572,24.8704425 C105.419058,24.8704425 103.07428,22.159292 103.07428,18.0559292 C103.07428,14.0502655 105.321359,10.8506195 109.131625,10.8506195 Z M120.234976,10.8506195 C121.520095,10.8506195 122.642897,11.1984437 123.377443,11.600374 L123.434622,11.6322124 L122.799578,13.6838938 C122.262233,13.3419469 121.334091,12.9267257 120.234976,12.9267257 C118.964888,12.9267257 118.280994,13.659469 118.280994,14.5631858 C118.280994,15.2408765 118.606535,15.6711563 119.419249,16.129753 L119.528032,16.1897532 C119.546627,16.1997876 119.565456,16.209841 119.58452,16.2199162 L119.70174,16.2806532 L119.70174,16.2806532 L119.824685,16.3420512 L119.824685,16.3420512 L119.953435,16.4042463 L119.953435,16.4042463 L120.088069,16.4673744 L120.088069,16.4673744 L120.228667,16.5315716 L120.228667,16.5315716 L120.450921,16.6301691 C120.476381,16.641292 120.502098,16.6524737 120.528074,16.6637168 C122.750728,17.5674336 123.923118,18.7886726 123.923118,20.7426549 C123.923118,23.3316814 121.944711,24.8704425 118.891613,24.8704425 C117.510392,24.8704425 116.198827,24.5221604 115.296494,24.0067029 L115.227897,23.9667257 L115.862941,21.8661947 C115.979703,21.9370861 116.112841,22.0101134 116.259072,22.0824809 L116.387542,22.1442833 C117.089004,22.4723389 118.044491,22.7699115 118.940463,22.7699115 C120.454799,22.7699115 121.187543,22.0371681 121.187543,21.0113274 C121.187543,20.2297345 120.861436,19.7175342 119.993168,19.2154614 L119.881795,19.1527362 C119.805643,19.1109297 119.725664,19.0691184 119.641732,19.0271524 L119.512854,18.9640686 L119.512854,18.9640686 L119.377953,18.9006402 L119.377953,18.9006402 L119.236936,18.8367546 L119.236936,18.8367546 L119.089709,18.7722994 C119.064648,18.7615032 119.039325,18.7506785 119.013737,18.739823 C116.620109,17.7872566 115.569844,16.4438938 115.569844,14.880708 C115.569844,12.6336283 117.401702,10.8506195 120.234976,10.8506195 Z M50.3907965,5.77026549 C52.7932337,5.77026549 54.4867551,6.19561503 55.6573056,7.20901614 L55.7153982,7.26017699 C56.6923894,8.11504425 57.2053097,9.40955752 57.2053097,10.9238938 C57.2053097,13.2900092 55.7733187,14.9162625 53.9238009,15.6375085 L53.859115,15.6623009 L53.859115,15.7111504 C55.2513274,16.2240708 56.0329204,17.5430088 56.4725664,19.5214159 L56.7002978,20.5046029 L56.7002978,20.5046029 L56.8696526,21.2212912 L56.8696526,21.2212912 L56.940152,21.5141127 L56.940152,21.5141127 L57.0322089,21.8901549 L57.0322089,21.8901549 L57.1220458,22.2488477 L57.1220458,22.2488477 L57.2096628,22.5892007 L57.2096628,22.5892007 L57.2739188,22.8318341 L57.2739188,22.8318341 L57.3369261,23.0631763 L57.3369261,23.0631763 L57.3986846,23.2828096 L57.3986846,23.2828096 L57.4591945,23.4903161 L57.4591945,23.4903161 L57.4988407,23.6217104 L57.4988407,23.6217104 L57.5379319,23.7474054 L57.5379319,23.7474054 L57.5955281,23.9249912 L57.5955281,23.9249912 L57.6332319,24.0358966 L57.6332319,24.0358966 L57.6703806,24.1406696 L57.6703806,24.1406696 L57.7069745,24.2391862 C57.7130272,24.2550774 57.7190568,24.2707028 57.7250632,24.2860597 L57.7608246,24.3749598 L57.7608246,24.3749598 L57.796031,24.457294 C57.8134954,24.4967991 57.8307517,24.5337955 57.8477999,24.5682137 L57.8647788,24.6017699 L54.9338053,24.6017699 L54.9085234,24.5490599 L54.9085234,24.5490599 L54.882296,24.4901832 L54.882296,24.4901832 L54.8551485,24.4252167 C54.8505487,24.4138858 54.8459116,24.4023042 54.8412378,24.3904738 L54.7981961,24.2773217 L54.7981961,24.2773217 L54.7684424,24.1945468 L54.7684424,24.1945468 L54.7378711,24.1059895 L54.7378711,24.1059895 L54.706508,24.0117267 L54.706508,24.0117267 L54.6580345,23.8598025 L54.6580345,23.8598025 L54.6079232,23.6954729 L54.6079232,23.6954729 L54.5562607,23.5189973 L54.5562607,23.5189973 L54.5031334,23.3306351 L54.5031334,23.3306351 L54.4486277,23.1306456 L54.4486277,23.1306456 L54.3739587,22.8463543 L54.3739587,22.8463543 L54.316573,22.620243 L54.316573,22.620243 L54.2383778,22.3020638 L54.2383778,22.3020638 L54.1785827,22.0512427 L54.1785827,22.0512427 L54.1382204,21.8783694 L54.1382204,21.8783694 L54.0564135,21.5193867 L54.0564135,21.5193867 L53.9733345,21.1432679 L53.9733345,21.1432679 L53.8891882,20.750628 L53.8891882,20.750628 L53.7828167,20.2375315 L53.7828167,20.2375315 L53.7447337,20.052203 L53.7447337,20.052203 L53.7105356,19.8957231 C53.7047415,19.8699956 53.6988998,19.8444438 53.6930094,19.8190669 L53.6570775,19.6689001 C53.6509894,19.6442203 53.644851,19.6197141 53.6386615,19.5953807 L53.600904,19.4514481 L53.600904,19.4514481 L53.5618785,19.3116281 C53.5486541,19.2657029 53.5352115,19.2204573 53.521544,19.1758855 L53.4798599,19.0441854 C53.4727978,19.0225703 53.4656778,19.0011222 53.458499,18.9798404 L53.4147138,18.8541385 C52.8658281,17.3282764 51.9857088,16.7048268 50.4298193,16.6884727 L48.6566372,16.6881416 L48.6566372,24.6017699 L45.8477876,24.6017699 L45.8477876,6.16106195 C46.0291231,6.12775543 46.2211122,6.09557035 46.4222256,6.06493148 L46.6678436,6.0289342 C47.7503186,5.87639777 49.0629767,5.77026549 50.3907965,5.77026549 Z M77.7755526,10.8506195 C79.8550782,10.8506195 82.1739912,12.1911881 82.2201615,16.246887 L82.2208623,16.3706195 L82.2208623,24.6017699 L79.387588,24.6017699 L79.3873669,16.6512138 L79.3873669,16.6512138 L79.3855834,16.5291579 L79.3855834,16.5291579 L79.3819787,16.4080335 C79.3804692,16.3678226 79.3786496,16.3277801 79.3765134,16.2879191 L79.3691482,16.1688935 L79.3691482,16.1688935 L79.3598438,16.0510354 L79.3598438,16.0510354 L79.3485607,15.9344235 C79.3362752,15.8184609 79.3209628,15.7044857 79.3024463,15.5928521 L79.2828552,15.4820121 C79.2759644,15.4453343 79.2687111,15.4089298 79.2610887,15.3728118 L79.2371075,15.26533 C78.9526213,14.0572379 78.2338455,13.1953982 76.8229862,13.1953982 C75.4465944,13.1953982 73.9747113,14.317421 73.9414372,16.4198572 L73.9408623,16.4927434 L73.9408623,24.6017699 L71.107588,24.6017699 L71.1073894,14.7654016 L71.1073894,14.7654016 L71.1058457,14.445116 L71.1058457,14.445116 L71.1028725,14.134837 L71.1028725,14.134837 L71.0985889,13.8337309 L71.0985889,13.8337309 L71.093114,13.5409636 L71.093114,13.5409636 L71.086567,13.2557014 L71.086567,13.2557014 L71.0749968,12.8400557 L71.0749968,12.8400557 L71.0616843,12.4366057 L71.0616843,12.4366057 L71.05204,12.1730246 L71.05204,12.1730246 L71.0207245,11.398959 L71.0207245,11.398959 L71.0098888,11.1437168 L73.4767915,11.1437168 L73.6233402,13.1465487 L73.6966145,13.1465487 C74.3316588,11.9985841 75.7482959,10.8506195 77.7755526,10.8506195 Z M101.350043,5.01309735 L101.350043,24.6017699 L98.5167688,24.6017699 L98.5167688,5.01309735 L101.350043,5.01309735 Z M65.8417586,20.0587611 L65.8417586,17.8361062 L65.7080122,17.836617 L65.7080122,17.836617 L65.5735847,17.8381993 L65.5735847,17.8381993 L65.3709714,17.8427461 L65.3709714,17.8427461 L65.2354513,17.8473356 L65.2354513,17.8473356 L65.0997384,17.8532593 L65.0997384,17.8532593 L64.9639722,17.8605922 L64.9639722,17.8605922 L64.8282921,17.8694094 L64.8282921,17.8694094 L64.6928377,17.8797858 L64.6928377,17.8797858 L64.5577485,17.8917965 L64.5577485,17.8917965 L64.423164,17.9055166 C64.3784021,17.9103832 64.3337476,17.9155472 64.2892237,17.9210211 L64.1560672,17.938385 L64.1560672,17.938385 L64.023834,17.9576833 C64.0018798,17.961065 63.9799699,17.9645305 63.9581071,17.9680813 L63.8275204,17.9904219 C63.805858,17.9943201 63.7842487,17.9983068 63.7626953,18.0023833 L63.6340689,18.0279352 C63.5914325,18.0368207 63.5490431,18.0460787 63.5069238,18.0557216 L63.3813995,18.0858176 C62.0723924,18.4142138 61.0545019,19.1369699 61.0545019,20.6449558 C61.0545019,22.1348673 61.9826435,22.7943363 63.032909,22.7943363 C64.5529047,22.7943363 65.8107409,21.6503674 65.8411937,20.115775 L65.8417586,20.0587611 Z M90.1489926,13.0976991 C87.9751873,13.0976991 86.7783731,15.2470796 86.7783731,17.9093805 C86.7783731,20.5472566 87.9507625,22.5745133 90.100143,22.5745133 C91.9118711,22.5745133 93.1024353,20.9977126 93.1283827,19.1436722 L93.1288156,19.0817699 L93.1288156,16.5904425 C93.1288156,14.3922124 91.7366032,13.0976991 90.1489926,13.0976991 Z M108.936227,12.8778761 C107.730746,12.8778761 106.928769,13.569598 106.439449,14.4557672 L106.386362,14.5550053 C106.360457,14.6049992 106.335507,14.6555365 106.311496,14.7065317 L106.264721,14.8091077 C106.257132,14.826297 106.249647,14.8435309 106.242264,14.8608063 L106.199193,14.9649302 C106.185244,14.9997869 106.1717,15.0347841 106.158558,15.0698965 L106.120329,15.1755537 C106.101812,15.2285298 106.084187,15.2817081 106.067439,15.3350033 L106.035107,15.4417245 C106.019521,15.4951379 106.004801,15.5486113 105.990932,15.6020596 L105.964323,15.7088974 L105.964323,15.7088974 L105.939956,15.8155166 L105.939956,15.8155166 L105.917802,15.9217656 L105.917802,15.9217656 L105.897834,16.0274928 C105.894686,16.0450621 105.891629,16.0626033 105.88866,16.0801133 L105.871918,16.1847736 C105.869305,16.2021461 105.86678,16.2194811 105.864343,16.2367754 L105.850765,16.3400276 C105.848675,16.3571465 105.846673,16.3742184 105.844756,16.3912402 L105.83428,16.4927434 L111.745076,16.4927434 L111.74571,16.3935794 C111.74571,16.3769774 111.745559,16.3603399 111.745373,16.3436693 L111.743364,16.2432693 L111.743364,16.2432693 L111.73954,16.1421979 L111.73954,16.1421979 L111.733858,16.0405772 C111.73165,16.0066257 111.729126,15.9726029 111.726277,15.9385293 L111.716755,15.8361761 C111.713252,15.8020211 111.709419,15.7678356 111.705247,15.7336399 L111.691714,15.6310426 L111.691714,15.6310426 L111.676111,15.5285063 C111.673336,15.5114288 111.670472,15.4943589 111.66752,15.4772992 L111.648735,15.3750834 C111.645424,15.3580745 111.642022,15.341081 111.638529,15.3241052 L111.616465,15.2224845 L111.616465,15.2224845 L111.592162,15.1214131 C111.558248,14.9870717 111.518252,14.8545208 111.471722,14.7250623 L111.435592,14.6285687 C111.055674,13.6538588 110.289309,12.8778761 108.936227,12.8778761 Z M50.6350442,7.96849558 L50.4596044,7.96934233 L50.4596044,7.96934233 L50.290569,7.9718349 L50.290569,7.9718349 L50.1280452,7.97590172 L50.1280452,7.97590172 L49.9721405,7.98147124 L49.9721405,7.98147124 L49.8229621,7.9884719 L49.8229621,7.9884719 L49.6806174,7.99683213 L49.6806174,7.99683213 L49.5452137,8.0064804 C49.5232308,8.0081918 49.5015416,8.00995389 49.4801483,8.01176518 L49.3553574,8.02321131 C49.3351567,8.02521342 49.3152565,8.02726174 49.2956588,8.02935478 L49.1817222,8.04243778 C49.163344,8.04470375 49.1452729,8.04701146 49.1275111,8.04935942 L49.0246703,8.06391828 L49.0246703,8.06391828 L48.9293609,8.07937161 C48.8988583,8.08466384 48.8696287,8.09009323 48.8416902,8.09564784 L48.7617655,8.11267541 L48.7617655,8.11267541 L48.6896943,8.13038278 L48.6896943,8.13038278 L48.6566372,8.13946903 L48.6566372,14.5631858 L50.5617699,14.5631858 C52.9065487,14.5631858 54.3720354,13.219823 54.3720354,11.2169912 C54.3720354,9.25836814 53.2502786,8.34137646 51.7466437,8.06362591 L51.634576,8.04421491 C51.6157854,8.04117258 51.5969393,8.03822617 51.5780392,8.03537492 L51.4640015,8.01940326 C51.1964527,7.98477225 50.9188602,7.96849558 50.6350442,7.96849558 Z" id="Shape" fill="#000000" fill-rule="nonzero"></path>
            <path d="M108.786804,37.5047426 L113.404415,37.5047426 L113.404415,36.3599227 L110.064416,36.3599227 L110.064416,27.0146678 L108.786633,27.0146678 L108.786633,37.5047426 L108.786804,37.5047426 Z M117.542879,36.3973989 C117.327263,36.53002 117.074341,36.5952183 116.77881,36.5952183 C116.508092,36.5952183 116.312497,36.4999022 116.194935,36.3070454 C116.072239,36.1265096 116.009436,35.820882 116.009436,35.387596 L116.009436,30.8528089 L117.542879,30.8528089 L117.542879,29.8406102 L116.009436,29.8406102 L116.009436,27.8966411 L116.009436,27.8966411 L114.791889,28.2775632 L114.791889,29.8409524 L113.61678,29.8409524 L113.61678,30.8531511 L114.791889,30.8531511 L114.791889,35.7911064 C114.791889,36.4525009 114.942307,36.9236053 115.240405,37.2042488 C115.53354,37.472229 115.954334,37.6075881 116.503129,37.6075881 C116.873784,37.5974918 117.219797,37.5348604 117.542879,37.4171271 L117.542879,36.3973989 L117.542879,36.3973989 Z M122.44524,33.6689972 C122.460299,35.6206669 121.914071,36.5953894 120.809123,36.5953894 C119.706913,36.5953894 119.160685,35.620838 119.170782,33.6689972 C119.160685,31.7272527 119.706913,30.7527013 120.809123,30.742605 C121.914242,30.7527013 122.460299,31.7272527 122.44524,33.6689972 L122.44524,33.6689972 Z M123.662788,26.2304063 L122.44524,26.2304063 L122.44524,30.8755684 L122.41786,30.8755684 C121.961986,30.1014032 121.327971,29.7204811 120.521122,29.7305774 C118.8477,29.7305774 117.99071,31.0434411 117.953234,33.6715641 C117.99071,36.2947245 118.8477,37.6075881 120.521122,37.6075881 C121.057253,37.5974918 121.480614,37.4646996 121.788808,37.2042488 C122.094607,36.9662152 122.32494,36.6907055 122.480321,36.3799443 L122.510439,36.3799443 L122.550482,37.5049137 L123.72559,37.5049137 C123.682809,37.0363761 123.662788,36.5678385 123.662788,36.0993008 L123.662788,26.2304063 L123.662788,26.2304063 Z" id="Shape" fill="#0098D6" fill-rule="nonzero"></path>
            <path d="M5.43934875,0.0855620202 L34.3885738,0.0855620202 C36.1992373,0.0855620202 37.8072899,0.949053929 38.7773921,2.26328656 C18.4362196,5.31254584 4.22060333,12.2605241 4.22060333,20.3433971 C4.22060333,28.3355742 18.1181,35.219381 38.0946071,38.320662 C37.1308366,39.1995551 35.8234489,39.7420183 34.3885738,39.7420183 L5.43934875,39.7420183 C2.49481739,39.7420183 0.0857331443,37.4585391 0.0857331443,34.6678482 L0.0857331443,5.15956094 C0.0857331443,2.36887009 2.49481739,0.0855620202 5.43934875,0.0855620202 L5.43934875,0.0855620202 Z M39.2372024,3.01589009 C39.3090745,3.16083215 39.3741016,3.30953894 39.4314282,3.46149709 C22.8758617,6.87833081 11.8363076,13.0044003 11.8363076,19.992935 C11.8363076,26.9734269 22.8501931,33.0935071 39.3730749,36.5132499 C39.2188921,36.8844179 39.0198748,37.2343666 38.7821835,37.5574488 C20.202562,34.3237178 7.50704053,27.820662 7.50704053,20.3259424 C7.50704053,12.7701315 20.4097932,6.22155674 39.2372024,3.01589009 L39.2372024,3.01589009 Z M39.6593654,4.27228279 C39.7136117,4.5606268 39.7420183,4.85701364 39.7420183,5.15973207 L39.7420183,31.8265047 C26.4188139,28.5972229 17.8763018,23.6212781 17.8763018,18.0392119 C17.8763018,12.4684398 26.3832201,7.50173569 39.6593654,4.27228279 L39.6593654,4.27228279 Z" id="Shape" fill="#0098D6"></path>
        </g>
    </g>
</svg>