<?xml version="1.0" encoding="UTF-8"?>
<svg width="99px" height="32px" viewBox="0 0 99 32" version="1.1" xmlns="http://www.w3.org/2000/svg" xmlns:xlink="http://www.w3.org/1999/xlink">
    <title>randles_logo</title>
    <g id="Page-1" stroke="none" stroke-width="1" fill="none" fill-rule="evenodd">
        <g id="Shape" transform="translate(0.068587, 0.068450)">
            <path d="M36.5274532,19.6769374 L38.4026989,19.6769374 L38.4026989,12.6976776 L39.255718,12.6976776 C39.9544517,12.6976776 40.4691928,12.8300592 40.8111671,13.0948223 C41.1531413,13.3779299 41.4216007,13.8339412 41.6238009,14.4664157 L43.3336723,19.6769374 L45.3559478,19.6769374 L43.2746688,13.5030558 C43.1313353,13.0581333 42.940087,12.716159 42.7046203,12.4808292 C42.4472498,12.2491957 42.097883,12.0873808 41.6529604,11.9955214 L41.6529604,11.9514399 C42.7487019,11.6866768 43.5209505,11.2086247 43.9695693,10.5172835 C44.3850584,9.85907202 44.5946512,9.10900112 44.5946512,8.26693395 C44.5946512,7.10493326 44.2233804,6.12692515 43.4842615,5.33633208 C43.1569354,4.99805408 42.7562314,4.73329096 42.274483,4.53834645 C41.7743901,4.36544272 41.1308268,4.2809759 40.34393,4.2809759 L36.5271794,4.2809759 L36.5271794,19.6769374 L36.5274532,19.6769374 Z M38.4026989,5.85463257 L39.895585,5.85463257 C40.7413485,5.85463257 41.4142082,6.06052902 41.9143011,6.47245881 C42.3960495,6.88794798 42.6350755,7.53507065 42.6350755,8.40657116 C42.6350755,9.10160857 42.4291791,9.72299418 42.0172493,10.2708649 C41.5723268,10.8261282 40.8515523,11.1092358 39.8551997,11.123884 L38.4026989,11.123884 L38.4026989,5.85463257 L38.4026989,5.85463257 Z M48.0981763,10.9400284 L48.0981763,10.9400284 C48.7895174,10.1642204 49.7271403,9.76707573 50.9110448,9.75242752 C51.2936782,9.75242752 51.6503007,9.80390163 51.9776268,9.91054613 C52.3049528,10.0171906 52.5583533,10.2084389 52.7313939,10.4878502 C52.9003276,10.7268763 53.0108053,10.9842468 53.0658388,11.263795 C53.1137535,11.5432064 53.1393536,11.8888769 53.1393536,12.2969735 L53.1393536,12.804459 L52.0839975,12.804459 C50.2454408,12.8191072 48.9254584,13.1721703 48.1239134,13.8598152 C47.329624,14.5695008 46.9398719,15.4776903 46.9545201,16.5919132 C46.9545201,17.6656138 47.2596685,18.4671589 47.8737985,19.0003814 C48.44371,19.5519484 49.1865252,19.8276634 50.098411,19.8276634 C50.9293893,19.8128783 51.591434,19.6401115 52.0839975,19.3018335 C52.5730015,18.9819 52.9297609,18.6030998 53.1615313,18.1655698 L53.2019166,18.1655698 L53.3048648,19.6769374 L54.9265731,19.6769374 C54.8715396,19.2394074 54.8421063,18.6657996 54.8421063,17.9524177 L54.8421063,12.0909402 C54.8421063,11.3077397 54.75011,10.7046986 54.5699506,10.2818168 C54.3677505,9.86632768 54.146932,9.55009045 53.9006503,9.33310517 C53.7351391,9.12351244 53.4153425,8.90283088 52.9409867,8.66380482 C52.7092163,8.54976776 52.4298049,8.4542121 52.1024789,8.37330465 C51.7605046,8.30348604 51.3927932,8.26666015 50.9957855,8.26666015 C49.8815626,8.28130837 48.8519435,8.58645675 47.9106244,9.17854593 L48.0981763,10.9400284 L48.0981763,10.9400284 Z M53.1394905,15.5768054 C53.1394905,16.374791 52.9151127,17.0365619 52.4701902,17.5623918 C52.0143157,18.1249108 51.3892339,18.4118516 50.5838557,18.4264998 C49.3558696,18.3970664 48.7417396,17.7425512 48.7417396,16.4592578 C48.7417396,15.7827018 49.0065027,15.2237422 49.535892,14.7751235 C50.0470738,14.3522417 50.826578,14.1315602 51.8709823,14.1169119 C52.3818902,14.1169119 52.8049088,14.1315602 53.1394905,14.1609935 L53.1394905,15.5768054 L53.1394905,15.5768054 Z M57.5657165,19.6768005 L59.352936,19.6768005 L59.352936,12.8852296 C59.3823693,10.8554246 60.1507847,9.84059062 61.6658485,9.84059062 C62.8535863,9.8259424 63.453068,10.6789615 63.4677162,12.3997849 L63.4677162,19.6768005 L65.2546619,19.6768005 L65.2546619,11.8666993 C65.1996284,9.45083851 64.1370166,8.25214883 62.0703858,8.26679705 C60.8163888,8.25214883 59.8971104,8.85874933 59.3125507,10.0907055 L59.2684692,10.0907055 L59.2059062,8.42861194 L57.4850829,8.42861194 C57.5254681,9.21550873 57.5510683,10.02075 57.5658534,10.8444727 L57.5658534,19.6768005 L57.5657165,19.6768005 Z M74.1117684,14.0470933 C74.1336723,16.9115729 73.3321273,18.342033 71.7106928,18.342033 C70.0928177,18.342033 69.2911358,16.9117098 69.3059209,14.0470933 C69.2912727,11.1973989 70.0928177,9.76693884 71.7106928,9.75229062 C73.3321273,9.76707573 74.1336723,11.1973989 74.1117684,14.0470933 L74.1117684,14.0470933 Z M75.8989879,3.12979025 L74.1117684,3.12979025 L74.1117684,9.94709823 L74.0713832,9.94709823 C73.4020828,8.8109715 72.4715787,8.25201193 71.2876742,8.26666015 C68.8315651,8.26666015 67.5737349,10.1935168 67.5187014,14.0507896 C67.5737349,17.9006698 68.8315651,19.8275265 71.2876742,19.8275265 C72.074571,19.8127414 72.6959566,19.6179338 73.1484085,19.2354373 C73.5970273,18.8860705 73.9353053,18.4816702 74.1631057,18.0256588 L74.2071872,18.0256588 L74.2663277,19.6766636 L75.9907104,19.6766636 C75.9284213,18.9891556 75.8989879,18.3015108 75.8989879,17.6138659 L75.8989879,3.12979025 L75.8989879,3.12979025 Z M78.7035056,19.6768005 L80.4904513,19.6768005 L80.4904513,3.12979025 L78.7035056,3.12979025 L78.7035056,19.6768005 L78.7035056,19.6768005 Z M90.7854105,14.6024935 L90.7854105,13.6097003 C90.7559771,10.1054906 89.4800763,8.32566372 86.957571,8.26693395 C85.6081553,8.28158216 84.5749768,8.80015646 83.8577617,9.81868675 C83.1187796,10.8446096 82.7507945,12.2565883 82.7507945,14.0510634 C82.7507945,15.8344497 83.1258984,17.2316433 83.8796656,18.2429179 C84.6076957,19.2871853 85.6963184,19.8130152 87.1338972,19.8278003 C88.2702978,19.8130152 89.2849949,19.5961668 90.1823693,19.1769814 L90.0976287,17.4965433 L90.0976287,17.4965433 C89.7853616,17.7207842 89.4102577,17.930377 88.9724539,18.1253215 C88.5128832,18.3276585 88.0568719,18.4269105 87.6009974,18.4269105 C85.6188334,18.4415587 84.6261771,17.1656578 84.6261771,14.6027673 L90.7854105,14.6027673 L90.7854105,14.6024935 Z M84.626314,13.2014668 C84.6666993,11.8850438 84.9057253,10.962206 85.3359996,10.4252872 C85.7627145,9.92149807 86.2699262,9.66782379 86.8547597,9.66782379 C88.2852198,9.66782379 88.9986017,10.8444727 88.9986017,13.2014668 L84.626314,13.2014668 L84.626314,13.2014668 Z M92.4648902,17.4999658 L92.3694715,19.1767076 C93.1748497,19.595893 94.1528578,19.8127414 95.3074659,19.8275265 C96.5577666,19.8127414 97.4622598,19.4672077 98.0173862,18.7905148 C98.5470493,18.1432553 98.8118124,17.327062 98.8118124,16.3378282 C98.7823791,14.9515866 98.0616047,13.991786 96.6460666,13.4659561 L96.0100328,13.1974967 C94.7816359,12.7709187 94.1677798,12.1385811 94.1677798,11.2963771 C94.1677798,10.8368063 94.3257615,10.4580062 94.6384393,10.1602503 C94.9400284,9.88809466 95.3812546,9.75215372 95.9695106,9.75215372 C96.815274,9.76680194 97.5250966,9.93231311 98.1058231,10.2522466 L98.1978194,8.66366792 C97.5727375,8.41355302 96.8041852,8.28130837 95.8921625,8.26652325 C94.8185987,8.28117147 93.9766685,8.59015303 93.3624016,9.19319415 C92.7078864,9.81102039 92.3805603,10.5942209 92.3805603,11.53554 C92.3805603,12.2342737 92.5460715,12.7930964 92.8733975,13.2196744 C93.2153718,13.6572043 93.7632426,14.0617416 94.5170097,14.4368455 L95.7193957,14.9884125 C96.2193517,15.209094 96.5873368,15.459072 96.8151371,15.7312277 C97.0137779,16.0107759 97.1094705,16.3527502 97.1094705,16.7571505 C97.1094705,17.1800323 96.940263,17.5477436 96.5982888,17.8565883 C96.2563145,18.1800812 95.7340439,18.3418961 95.0391434,18.3418961 C94.1380727,18.3273847 93.2812204,18.0478365 92.4648902,17.4999658 L92.4648902,17.4999658 Z" fill="#000000" fill-rule="nonzero"></path>
            <path d="M86.9608566,29.9353444 L90.6549455,29.9353444 L90.6549455,29.0194886 L87.9829463,29.0194886 L87.9829463,21.5432846 L86.9607197,21.5432846 L86.9607197,29.9353444 L86.9608566,29.9353444 Z M93.9657165,29.0494695 C93.7932235,29.1555664 93.5908864,29.207725 93.3544614,29.207725 C93.1378869,29.207725 92.981411,29.1314722 92.8873613,28.9771867 C92.7892045,28.832758 92.7389625,28.588256 92.7389625,28.2416271 L92.7389625,24.6137975 L93.9657165,24.6137975 L93.9657165,23.8040385 L92.7389625,23.8040385 L92.7389625,22.2488632 L92.7389625,22.2488632 L91.7649245,22.5536009 L91.7649245,23.8043123 L90.8248374,23.8043123 L90.8248374,24.6140713 L91.7649245,24.6140713 L91.7649245,28.5644355 C91.7649245,29.0935511 91.8852589,29.4704347 92.1237373,29.6949494 C92.3582457,29.9093336 92.6948809,30.0176209 93.1339168,30.0176209 C93.4304405,30.0095438 93.7072508,29.9594387 93.9657165,29.865252 L93.9657165,29.0494695 L93.9657165,29.0494695 Z M97.8876057,26.8667482 C97.8996529,28.4280839 97.4626705,29.2078619 96.5787122,29.2078619 C95.6969442,29.2078619 95.2599619,28.4282208 95.2680389,26.8667482 C95.2599619,25.3133526 95.6969442,24.5337114 96.5787122,24.5256344 C97.4628074,24.5337114 97.8996529,25.3133526 97.8876057,26.8667482 L97.8876057,26.8667482 Z M98.8616438,20.9158754 L97.8876057,20.9158754 L97.8876057,24.6320051 L97.8657019,24.6320051 C97.5010023,24.012673 96.9937906,23.7079353 96.3483108,23.7160123 C95.0095732,23.7160123 94.3239818,24.7663032 94.2940009,26.8688016 C94.3239818,28.96733 95.0095732,30.0176209 96.3483108,30.0176209 C96.7772161,30.0095438 97.1159048,29.90331 97.3624603,29.6949494 C97.6070992,29.5045226 97.7913656,29.2841148 97.9156701,29.0355058 L97.9397643,29.0355058 L97.9717988,29.9354813 L98.9118858,29.9354813 C98.877661,29.5606512 98.8616438,29.1858212 98.8616438,28.8109911 L98.8616438,20.9158754 L98.8616438,20.9158754 Z" fill="#0098D6" fill-rule="nonzero"></path>
            <path d="M4.28289249,-7.54558657e-16 L27.4422725,-7.54558657e-16 C28.8908033,-7.54558657e-16 30.1772454,0.690793527 30.9533271,1.74217963 C14.6803892,4.18158705 3.30789615,9.73996969 3.30789615,16.206268 C3.30789615,22.6000098 14.4258935,28.1070552 30.4070992,30.58808 C29.6360827,31.2911944 28.5901726,31.725165 27.4422725,31.725165 L4.28289249,31.725165 C1.92726739,31.725165 0,29.8983817 0,27.665829 L0,4.05919914 C0,1.82664646 1.92726739,-7.54558657e-16 4.28289249,-7.54558657e-16 L4.28289249,-7.54558657e-16 Z M31.3211754,2.34426246 C31.3786731,2.46021611 31.4306948,2.57918154 31.476556,2.70074806 C18.2321029,5.43421503 9.40045959,10.3350706 9.40045959,15.9258984 C9.40045959,21.5102919 18.211568,26.406356 31.4298734,29.1421503 C31.3065272,29.4390847 31.1473134,29.7190437 30.9571603,29.9775094 C16.0934631,27.3905246 5.93704591,22.18808 5.93704591,16.1923043 C5.93704591,10.1476556 16.259248,4.90879578 31.3211754,2.34426246 L31.3211754,2.34426246 Z M31.6589058,3.34937662 C31.7023028,3.58005183 31.7250281,3.8171613 31.7250281,4.05933604 L31.7250281,25.3927541 C21.0664646,22.8093287 14.2324549,18.8285728 14.2324549,14.3629199 C14.2324549,9.90630225 21.0379895,5.93293893 31.6589058,3.34937662 L31.6589058,3.34937662 Z" fill="#0098D6"></path>
        </g>
    </g>
</svg>